<!-- <svg xmlns="http://www.w3.org/2000/svg" width="120" height="420" viewBox="0 0 120 420">
  <rect width="100%" height="100%" fill="black"/>
  <path d="M43 10 H77 V260 
           C77 288 95 305 106 324
           C116 342 116 372 93 394
           C70 416 50 416 27 394
           C4 372 4 342 14 324
           C25 305 43 288 43 260
           Z"
        fill="white" stroke="none"/>
</svg> -->

<svg xmlns="http://www.w3.org/2000/svg" width="188" height="460" viewBox="0 0 188 460">
  <!-- Normalized strip template: narrow top stem and rounded bulb bottom -->
  <path d="M86 10 L102 10 L102 260 C102 288 120 305 131 324 C141 342 141 372 118 394 C95 416 75 416 52 394 C29 372 29 342 39 324 C50 305 68 288 68 260 L68 10 Z"
        fill="#000" stroke="none"/>
</svg>
